:FULLY-SPECIFIED
:FORCE-ALL-JOINTS-BE-3DOF
:DEGREES
442
root 3.05119 15.966 -9.02036 2.86105 10.4946 -9.5868
lfemur -45.345 17.4684 -15.1129
ltibia 54.4912 0 0
lfoot -17.6066 3.70678 0
ltoes 7.3896 0 0
rfemur -15.8433 -12.2702 18.1967
rtibia 52.7975 0 0
rfoot 10.7701 -13.5202 0
rtoes -19.4299 0 0
lowerback 2.80611 1.99385 3.54942
upperback 0.341604 2.69669 0.755487
thorax -1.13079 1.32911 -1.37386
lowerneck -7.14515 -1.37205 4.6932
upperneck 2.63457 -2.25438 0.248326
head 2.05987 -1.05835 -0.814489
lclavicle -1.30905e-014 2.24978e-014 0
lhumerus -45.6498 -21.379 100.952
lradius 51.382 0 0
lwrist 7.37282 0 0
lhand -24.0284 -7.66741 0
lfingers 7.12502 0 0
lthumb 2.4497 22.2795 0
rclavicle -1.30905e-014 2.24978e-014 0
rhumerus -50.6195 1.36969 -85.0353
rradius 63.5665 0 0
rwrist 8.95279 0 0
rhand -27.0663 -24.4858 0
rfingers 7.12502 0 0
rthumb -0.484313 -774.399 0
443
root 3.00645 15.9593 -8.95811 2.91802 12.007 -9.84955
lfemur -45.8651 17.7588 -15.2552
ltibia 54.7335 0 0
lfoot -17.7465 3.39051 0
ltoes 7.54622 0 0
rfemur -14.9852 -11.8524 17.9516
rtibia 51.739 0 0
rfoot 10.9702 -13.8697 0
rtoes -21.1377 0 0
lowerback 2.70981 1.90895 3.68629
upperback 0.297867 2.58884 0.849973
thorax -1.12454 1.27494 -1.34514
lowerneck -7.1745 -1.49541 4.60612
upperneck 2.60293 -2.41263 0.26187
head 2.05021 -1.13839 -0.801084
lclavicle -1.23246e-014 2.3059e-014 0
lhumerus -45.6504 -21.4945 101.156
lradius 51.3872 0 0
lwrist 7.01476 0 0
lhand -24.148 -7.96583 0
lfingers 7.12502 0 0
lthumb 2.33415 21.9829 0
rclavicle -1.23246e-014 2.3059e-014 0
rhumerus -50.7762 1.10699 -84.8446
rradius 63.5228 0 0
rwrist 8.9898 0 0
rhand -27.2926 -24.7067 0
rfingers 7.12502 0 0
rthumb -0.702803 -774.621 0
444
root 2.9617 15.9526 -8.89585 2.97498 13.5193 -10.1123
lfemur -46.3851 18.0493 -15.3975
ltibia 54.9758 0 0
lfoot -17.8864 3.07423 0
ltoes 7.70284 0 0
rfemur -14.127 -11.4345 17.7066
rtibia 50.6806 0 0
rfoot 11.1702 -14.2191 0
rtoes -22.8454 0 0
lowerback 2.61352 1.82405 3.82316
upperback 0.25413 2.48099 0.94446
thorax -1.11829 1.22077 -1.31643
lowerneck -7.20385 -1.61877 4.51904
upperneck 2.57129 -2.57087 0.275413
head 2.04056 -1.21843 -0.787679
lclavicle -1.15587e-014 2.36203e-014 0
lhumerus -45.651 -21.61 101.36
lradius 51.3924 0 0
lwrist 6.65671 0 0
lhand -24.2677 -8.26426 0
lfingers 7.12502 0 0
lthumb 2.21859 21.6863 0
rclavicle -1.15587e-014 2.36203e-014 0
rhumerus -50.9329 0.844299 -84.6539
rradius 63.479 0 0
rwrist 9.02681 0 0
rhand -27.5188 -24.9276 0
rfingers 7.12502 0 0
rthumb -0.921294 -774.843 0
445
root 2.91695 15.946 -8.8336 3.03195 15.0316 -10.375
lfemur -46.9051 18.3397 -15.5398
ltibia 55.2181 0 0
lfoot -18.0263 2.75795 0
ltoes 7.85945 0 0
rfemur -13.2688 -11.0167 17.4615
rtibia 49.6221 0 0
rfoot 11.3702 -14.5686 0
rtoes -24.5532 0 0
lowerback 2.51723 1.73915 3.96003
upperback 0.210393 2.37315 1.03895
thorax -1.11204 1.1666 -1.28772
lowerneck -7.23319 -1.74212 4.43195
upperneck 2.53965 -2.72912 0.288957
head 2.0309 -1.29847 -0.774273
lclavicle -1.07928e-014 2.41816e-014 0
lhumerus -45.6515 -21.7254 101.564
lradius 51.3976 0 0
lwrist 6.29865 0 0
lhand -24.3874 -8.56269 0
lfingers 7.12502 0 0
lthumb 2.10303 21.3897 0
rclavicle -1.07928e-014 2.41816e-014 0
rhumerus -51.0895 0.581605 -84.4632
rradius 63.4352 0 0
rwrist 9.06382 0 0
rhand -27.7451 -25.1484 0
rfingers 7.12502 0 0
rthumb -1.13978 -775.065 0
446
root 2.8722 15.9393 -8.77135 3.08891 16.544 -10.6378
lfemur -47.4252 18.6302 -15.6821
ltibia 55.4604 0 0
lfoot -18.1661 2.44168 0
ltoes 8.01607 0 0
rfemur -12.4106 -10.5989 17.2164
rtibia 48.5637 0 0
rfoot 11.5702 -14.9181 0
rtoes -26.2609 0 0
lowerback 2.42093 1.65425 4.0969
upperback 0.166656 2.2653 1.13343
thorax -1.10579 1.11243 -1.25901
lowerneck -7.26254 -1.86548 4.34487
upperneck 2.50801 -2.88737 0.3025
head 2.02125 -1.37851 -0.760868
lclavicle -1.00269e-014 2.47429e-014 0
lhumerus -45.6521 -21.8409 101.768
lradius 51.4027 0 0
lwrist 5.94059 0 0
lhand -24.507 -8.86112 0
lfingers 7.12502 0 0
lthumb 1.98748 21.093 0
rclavicle -1.00269e-014 2.47429e-014 0
rhumerus -51.2462 0.31891 -84.2724
rradius 63.3915 0 0
rwrist 9.10083 0 0
rhand -27.9713 -25.3693 0
rfingers 7.12502 0 0
rthumb -1.35827 -775.287 0
447
root 2.82746 15.9326 -8.7091 3.14587 18.0563 -10.9005
lfemur -47.9452 18.9206 -15.8244
ltibia 55.7027 0 0
lfoot -18.306 2.1254 0
ltoes 8.17269 0 0
rfemur -11.5524 -10.1811 16.9713
rtibia 47.5052 0 0
rfoot 11.7703 -15.2675 0
rtoes -27.9687 0 0
lowerback 2.32464 1.56935 4.23378
upperback 0.122919 2.15745 1.22792
thorax -1.09954 1.05826 -1.2303
lowerneck -7.29188 -1.98884 4.25779
upperneck 2.47637 -3.04562 0.316044
head 2.01159 -1.45855 -0.747462
lclavicle -9.26102e-015 2.53041e-014 0
lhumerus -45.6527 -21.9564 101.972
lradius 51.4079 0 0
lwrist 5.58254 0 0
lhand -24.6267 -9.15954 0
lfingers 7.12502 0 0
lthumb 1.87192 20.7964 0
rclavicle -9.26102e-015 2.53041e-014 0
rhumerus -51.4029 0.0562161 -84.0817
rradius 63.3477 0 0
rwrist 9.13784 0 0
rhand -28.1976 -25.5902 0
rfingers 7.12502 0 0
rthumb -1.57676 -775.509 0
448
root 2.78271 15.9259 -8.64684 3.20284 19.5687 -11.1633
lfemur -48.4652 19.2111 -15.9667
ltibia 55.9451 0 0
lfoot -18.4459 1.80913 0
ltoes 8.3293 0 0
rfemur -10.6943 -9.76327 16.7263
rtibia 46.4468 0 0
rfoot 11.9703 -15.617 0
rtoes -29.6764 0 0
lowerback 2.22835 1.48444 4.37065
upperback 0.0791816 2.04961 1.3224
thorax -1.09329 1.00409 -1.20158
lowerneck -7.32123 -2.1122 4.17071
upperneck 2.44474 -3.20386 0.329588
head 2.00193 -1.53859 -0.734057
lclavicle -8.49511e-015 2.58654e-014 0
lhumerus -45.6532 -22.0719 102.176
lradius 51.4131 0 0
lwrist 5.22448 0 0
lhand -24.7463 -9.45797 0
lfingers 7.12502 0 0
lthumb 1.75637 20.4998 0
rclavicle -8.49511e-015 2.58654e-014 0
rhumerus -51.5596 -0.206478 -83.891
rradius 63.3039 0 0
rwrist 9.17485 0 0
rhand -28.4238 -25.8111 0
rfingers 7.12502 0 0
rthumb -1.79526 -775.731 0
449
root 2.73796 15.9192 -8.58459 3.2598 21.081 -11.426
lfemur -48.9853 19.5016 -16.109
ltibia 56.1874 0 0
lfoot -18.5858 1.49285 0
ltoes 8.48592 0 0
rfemur -9.83608 -9.34545 16.4812
rtibia 45.3883 0 0
rfoot 12.1703 -15.9664 0
rtoes -31.3842 0 0
lowerback 2.13205 1.39954 4.50752
upperback 0.0354445 1.94176 1.41689
thorax -1.08704 0.949925 -1.17287
lowerneck -7.35058 -2.23556 4.08362
upperneck 2.4131 -3.36211 0.343131
head 1.99228 -1.61863 -0.720651
lclavicle -7.72921e-015 2.64267e-014 0
lhumerus -45.6538 -22.1874 102.379
lradius 51.4183 0 0
lwrist 4.86642 0 0
lhand -24.866 -9.7564 0
lfingers 7.12502 0 0
lthumb 1.64081 20.2032 0
rclavicle -7.72921e-015 2.64267e-014 0
rhumerus -51.7162 -0.469173 -83.7003
rradius 63.2602 0 0
rwrist 9.21186 0 0
rhand -28.6501 -26.032 0
rfingers 7.12502 0 0
rthumb -2.01375 -775.953 0
450
root 2.69321 15.9125 -8.52234 3.31677 22.5933 -11.6888
lfemur -49.5053 19.792 -16.2513
ltibia 56.4297 0 0
lfoot -18.7257 1.17657 0
ltoes 8.64254 0 0
rfemur -8.9779 -8.92764 16.2361
rtibia 44.3298 0 0
rfoot 12.3704 -16.3159 0
rtoes -33.092 0 0
lowerback 2.03576 1.31464 4.64439
upperback -0.00829263 1.83392 1.51138
thorax -1.0808 0.895756 -1.14416
lowerneck -7.37992 -2.35892 3.99654
upperneck 2.38146 -3.52036 0.356675
head 1.98262 -1.69867 -0.707246
lclavicle -6.9633e-015 2.6988e-014 0
lhumerus -45.6544 -22.3029 102.583
lradius 51.4235 0 0
lwrist 4.50837 0 0
lhand -24.9857 -10.0548 0
lfingers 7.12502 0 0
lthumb 1.52525 19.9065 0
rclavicle -6.9633e-015 2.6988e-014 0
rhumerus -51.8729 -0.731867 -83.5096
rradius 63.2164 0 0
rwrist 9.24887 0 0
rhand -28.8763 -26.2529 0
rfingers 7.12502 0 0
rthumb -2.23224 -776.175 0
451
root 2.64847 15.9059 -8.46008 3.37373 24.1057 -11.9515
lfemur -50.0253 20.0825 -16.3936
ltibia 56.672 0 0
lfoot -18.8656 0.860296 0
ltoes 8.79915 0 0
rfemur -8.11972 -8.50982 15.9911
rtibia 43.2714 0 0
rfoot 12.5704 -16.6654 0
rtoes -34.7997 0 0
lowerback 1.93947 1.22974 4.78126
upperback -0.0520298 1.72607 1.60586
thorax -1.07455 0.841587 -1.11545
lowerneck -7.40927 -2.48227 3.90946
upperneck 2.34982 -3.6786 0.370219
head 1.97296 -1.77871 -0.69384
lclavicle -6.1974e-015 2.75492e-014 0
lhumerus -45.6549 -22.4183 102.787
lradius 51.4287 0 0
lwrist 4.15031 0 0
lhand -25.1053 -10.3533 0
lfingers 7.12502 0 0
lthumb 1.4097 19.6099 0
rclavicle -6.1974e-015 2.75492e-014 0
rhumerus -52.0296 -0.994561 -83.3189
rradius 63.1726 0 0
rwrist 9.28588 0 0
rhand -29.1026 -26.4737 0
rfingers 7.12502 0 0
rthumb -2.45073 -776.397 0
452
root 2.60372 15.8992 -8.39783 3.4307 25.618 -12.2142
lfemur -50.5453 20.3729 -16.5359
ltibia 56.9143 0 0
lfoot -19.0054 0.54402 0
ltoes 8.95577 0 0
rfemur -7.26154 -8.092 15.746
rtibia 42.2129 0 0
rfoot 12.7704 -17.0148 0
rtoes -36.5075 0 0
lowerback 1.84318 1.14484 4.91813
upperback -0.0957669 1.61822 1.70035
thorax -1.0683 0.787418 -1.08673
lowerneck -7.43861 -2.60563 3.82237
upperneck 2.31818 -3.83685 0.383762
head 1.96331 -1.85875 -0.680435
lclavicle -5.43149e-015 2.81105e-014 0
lhumerus -45.6555 -22.5338 102.991
lradius 51.4338 0 0
lwrist 3.79225 0 0
lhand -25.225 -10.6517 0
lfingers 7.12502 0 0
lthumb 1.29414 19.3133 0
rclavicle -5.43149e-015 2.81105e-014 0
rhumerus -52.1862 -1.25726 -83.1281
rradius 63.1288 0 0
rwrist 9.32289 0 0
rhand -29.3288 -26.6946 0
rfingers 7.12502 0 0
rthumb -2.66922 -776.619 0
453
root 2.55897 15.8925 -8.33558 3.48766 27.1303 -12.477
lfemur -51.0654 20.6634 -16.6782
ltibia 57.1566 0 0
lfoot -19.1453 0.227744 0
ltoes 9.11238 0 0
rfemur -6.40336 -7.67418 15.5009
rtibia 41.1545 0 0
rfoot 12.9705 -17.3643 0
rtoes -38.2152 0 0
lowerback 1.74688 1.05993 5.055
upperback -0.139504 1.51038 1.79484
thorax -1.06205 0.733249 -1.05802
lowerneck -7.46796 -2.72899 3.73529
upperneck 2.28654 -3.9951 0.397306
head 1.95365 -1.93879 -0.667029
lclavicle -4.66559e-015 2.86718e-014 0
lhumerus -45.656 -22.6493 103.195
lradius 51.439 0 0
lwrist 3.4342 0 0
lhand -25.3447 -10.9501 0
lfingers 7.12502 0 0
lthumb 1.17858 19.0167 0
rclavicle -4.66559e-015 2.86718e-014 0
rhumerus -52.3429 -1.51995 -82.9374
rradius 63.0851 0 0
rwrist 9.3599 0 0
rhand -29.5551 -26.9155 0
rfingers 7.12502 0 0
rthumb -2.88771 -776.841 0
454
root 2.51422 15.8858 -8.27333 3.54462 28.6427 -12.7397
lfemur -51.5854 20.9539 -16.8205
ltibia 57.3989 0 0
lfoot -19.2852 -0.0885324 0
ltoes 9.269 0 0
rfemur -5.54518 -7.25636 15.2558
rtibia 40.096 0 0
rfoot 13.1705 -17.7137 0
rtoes -39.923 0 0
lowerback 1.65059 0.975033 5.19187
upperback -0.183241 1.40253 1.88932
thorax -1.0558 0.67908 -1.02931
lowerneck -7.4973 -2.85235 3.64821
upperneck 2.2549 -4.15335 0.410849
head 1.944 -2.01883 -0.653624
lclavicle -3.89968e-015 2.92331e-014 0
lhumerus -45.6566 -22.7648 103.399
lradius 51.4442 0 0
lwrist 3.07614 0 0
lhand -25.4643 -11.2485 0
lfingers 7.12502 0 0
lthumb 1.06303 18.72 0
rclavicle -3.89968e-015 2.92331e-014 0
rhumerus -52.4996 -1.78264 -82.7467
rradius 63.0413 0 0
rwrist 9.3969 0 0
rhand -29.7813 -27.1364 0
rfingers 7.12502 0 0
rthumb -3.1062 -777.064 0
455
root 2.46948 15.8791 -8.21107 3.60159 30.155 -13.0025
lfemur -52.1054 21.2443 -16.9628
ltibia 57.6412 0 0
lfoot -19.4251 -0.404809 0
ltoes 9.42562 0 0
rfemur -4.687 -6.83854 15.0108
rtibia 39.0376 0 0
rfoot 13.3705 -18.0632 0
rtoes -41.6307 0 0
lowerback 1.5543 0.890132 5.32874
upperback -0.226978 1.29468 1.98381
thorax -1.04955 0.624911 -1.0006
lowerneck -7.52665 -2.97571 3.56112
upperneck 2.22326 -4.31159 0.424393
head 1.93434 -2.09887 -0.640218
lclavicle -3.13378e-015 2.97943e-014 0
lhumerus -45.6572 -22.8803 103.603
lradius 51.4494 0 0
lwrist 2.71808 0 0
lhand -25.584 -11.547 0
lfingers 7.12502 0 0
lthumb 0.947471 18.4234 0
rclavicle -3.13378e-015 2.97943e-014 0
rhumerus -52.6562 -2.04534 -82.556
rradius 62.9975 0 0
rwrist 9.43391 0 0
rhand -30.0076 -27.3573 0
rfingers 7.12502 0 0
rthumb -3.32469 -777.286 0
